<?xml version="1.0" encoding="utf-8"?>
<svg version="1.1" xmlns:xlink="http://www.w3.org/1999/xlink" width="61px" height="50px" xmlns="http://www.w3.org/2000/svg">
  <g transform="matrix(1 0 0 1 -336 -647 )">
    <path d="M 56.31947544642857 45.1171875  C 56.53506324404763 44.8922821969697  56.642857142857146 44.62594696969697  56 44.31818181818182  L 56 17.045454545454547  C 55.91666666666668 17.89772727272727  55.133742559523824 18.67897727272727  54.29408482142857 19.389204545454547  C 48.212239583333336 24.26609848484848  43.37853422619048 28.26704545454546  39.79296875 31.39204545454546  C 38.63560267857143 32.410037878787875  37.693824404761905 33.203125  36.96763392857143 33.77130681818182  C 36.241443452380956 34.33948863636363  35.25995163690477 34.913589015151516  34.023158482142854 35.49360795454546  C 32.786365327380956 36.07362689393939  31.623325892857146 36.36363636363637  30.534040178571427 36.36363636363637  L 30.5 36.36363636363637  L 30.465959821428573 36.36363636363637  C 29.376674107142858 36.36363636363637  28.21363467261905 36.07362689393939  26.976841517857142 35.49360795454546  C 25.74004836309524 34.913589015151516  24.75855654761905 34.33948863636363  24.032366071428573 33.77130681818182  C 23.3061755952381 33.203125  22.364397321428573 32.410037878787875  21.20703125 31.39204545454546  C 17.621465773809526 28.26704545454546  12.78776041666667 24.26609848484848  6.705915178571429 19.389204545454547  C 5.866257440476191 18.67897727272727  5.083333333333334 17.89772727272727  5 17.045454545454547  L 5 44.31818181818182  C 4.357142857142857 44.62594696969697  4.464936755952381 44.8922821969697  4.680524553571429 45.1171875  C 4.896112351190476 45.3420928030303  5.151413690476191 45.45454545454545  5.446428571428571 45  L 55.55357142857143 45  C 55.84858630952381 45.45454545454545  56.103887648809526 45.3420928030303  56.31947544642857 45.1171875  Z M 55.059988839285715 11.665482954545453  C 56.115234375 9.949100378787874  56.642857142857146 8.39251893939394  56.642857142857146 6.995738636363635  L 56.642857142857146 6.605113636363635  L 56.642857142857146 6.125710227272729  C 56.642857142857146 6.125710227272729  56.637183779761905 5.971827651515143  56.62583705357143 5.6640625  C 56.614490327380956 5.356297348484845  56.580450148809526 5.208333333333326  56.523716517857146 5.220170454545453  C 56.46698288690477 5.232007575757574  56.404575892857146 5.125473484848481  56.336495535714285 4.9005681818181825  C 56.26841517857143 4.675662878787873  56.166294642857146 4.586884469696967  56.03013392857143 4.634232954545453  C 55.893973214285715 4.6815814393939394  55.73511904761905 4.651988636363635  55.55357142857143 5  L 5.446428571428571 5  C 5.151413690476191 4.545454545454547  4.896112351190476 4.65790719696969  4.680524553571429 4.8828125  C 4.464936755952381 5.107717803030298  4.357142857142857 5.374053030303028  4.357142857142857 5.6818181818181825  C 4.357142857142857 9.659090909090912  6.025111607142857 13.020833333333325  9.361049107142858 15.767045454545453  C 13.74088541666667 19.365530303030297  18.29092261904762 23.11789772727273  23.011160714285715 27.02414772727273  C 23.147321428571427 27.142518939393934  23.5444568452381 27.491714015151516  24.202566964285715 28.07173295454546  C 24.860677083333336 28.65175189393939  25.38262648809524 29.095643939393934  25.768415178571427 29.403409090909093  C 26.154203869047624 29.71117424242424  26.659133184523814 30.084043560606055  27.283203125 30.52201704545454  C 27.90727306547619 30.959990530303028  28.48028273809524 31.285511363636363  29.002232142857142 31.49857954545454  C 29.52418154761905 31.71164772727273  30.012090773809526 31.818181818181817  30.465959821428573 31.818181818181817  L 30.5 31.818181818181817  L 30.534040178571427 31.818181818181817  C 30.98790922619048 31.818181818181817  31.475818452380953 31.71164772727273  31.997767857142854 31.49857954545454  C 32.51971726190477 31.285511363636363  33.09272693452381 30.959990530303028  33.716796875 30.52201704545454  C 34.34086681547619 30.084043560606055  34.84579613095238 29.71117424242424  35.23158482142857 29.403409090909093  C 35.61737351190477 29.095643939393934  36.13932291666667 28.65175189393939  36.797433035714285 28.07173295454546  C 37.455543154761905 27.491714015151516  37.85267857142857 27.142518939393934  37.988839285714285 27.02414772727273  C 42.70907738095238 23.11789772727273  47.259114583333336 19.365530303030297  51.638950892857146 15.767045454545453  C 52.86439732142857 14.749053030303028  54.00474330357143 13.381865530303028  55.059988839285715 11.665482954545453  Z M 59.400111607142854 1.6690340909090884  C 60.46670386904763 2.781723484848481  61 4.1193181818181825  61 5.6818181818181825  L 61 44.31818181818182  C 61 45.88068181818182  60.46670386904763 47.21827651515152  59.400111607142854 48.330965909090914  C 58.3335193452381 49.4436553030303  57.0513392857143 50  55.55357142857143 50  L 5.446428571428571 50  C 3.948660714285715 50  2.666480654761905 49.4436553030303  1.5998883928571428 48.330965909090914  C 0.5332961309523809 47.21827651515152  0 45.88068181818182  0 44.31818181818182  L 0 5.6818181818181825  C 0 4.1193181818181825  0.5332961309523809 2.781723484848481  1.5998883928571428 1.6690340909090884  C 2.666480654761905 0.5563446969696906  3.948660714285715 0  5.446428571428571 0  L 55.55357142857143 0  C 57.0513392857143 0  58.3335193452381 0.5563446969696906  59.400111607142854 1.6690340909090884  Z " fill-rule="nonzero" fill="#d7d7d7" stroke="none" transform="matrix(1 0 0 1 336 647 )" />
  </g>
</svg>