<?xml version="1.0" encoding="utf-8"?>
<svg version="1.1" xmlns:xlink="http://www.w3.org/1999/xlink" width="52px" height="50px" xmlns="http://www.w3.org/2000/svg">
  <g transform="matrix(1 0 0 1 -437 -647 )">
    <path d="M 1 17  L 12 17  L 12 50  L 1 50  L 1 17  Z M 10.799479166666666 1.651907356948229  C 11.92795138888889 2.7531789282470465  12.503472222222223 4.1439600363306015  12.526041666666666 5.824250681198912  C 12.54861111111111 7.481834695731148  11.97873263888889 8.866939146230695  10.81640625 9.979564032697546  C 9.65407986111111 11.092188919164393  8.125 11.648501362397823  6.229166666666667 11.648501362397823  L 6.161458333333333 11.648501362397823  C 4.310763888888889 11.648501362397823  2.821180555555556 11.092188919164393  1.6927083333333335 9.979564032697546  C 0.564236111111111 8.866939146230695  0 7.481834695731148  0 5.824250681198912  C 0 4.1439600363306015  0.5811631944444444 2.7531789282470465  1.7434895833333335 1.651907356948229  C 2.9058159722222223 0.550635785649406  4.423611111111112 0  6.296875 0  C 8.17013888888889 0  9.671006944444445 0.550635785649406  10.799479166666666 1.651907356948229  Z M 48.479166666666664 19.32901907356948  C 50.826388888888886 21.90622161671208  52 25.681198910081743  52 30.65395095367848  L 52 50  L 40 50  L 40 31.948228882833785  C 40.861979166666664 29.56403269754768  40.404947916666664 27.696412352406902  39.490885416666664 26.345367847411445  C 38.576822916666664 24.99432334241598  37.14930555555556 24.318801089918257  35.208333333333336 24.318801089918257  C 33.786458333333336 24.318801089918257  32.59592013888889 24.710490463215258  31.63671875 25.49386920980926  C 30.677517361111114 26.277247956403272  29.9609375 27.247956403269757  29.486979166666664 28.40599455040872  C 29.23871527777778 29.08719346049046  29.114583333333336 30.006811989100818  29 31.164850136239785  L 29 50  L 17.9765625 50  C 18.02170138888889 40.940054495912804  18.044270833333332 33.594459582198  18.044270833333332 27.96321525885559  C 18.044270833333332 22.33197093551317  18.032986111111114 18.971389645776565  18.010416666666668 17.881471389645775  L 17.9765625 17  L 29.114583333333336 17  L 29.114583333333336 21.151226158038146  L 29.046875 21.151226158038146  C 29.49826388888889 20.424613987284285  29.9609375 19.78882833787466  30.434895833333336 19.243869209809265  C 30.908854166666664 18.69891008174387  31.546440972222225 18.108537693006355  32.34765625 17.472752043596728  C 33.14887152777778 16.836966394187098  34.130642361111114 16.343097184377836  35.29296875 15.99114441416894  C 36.45529513888889 15.639191643960038  37.747395833333336 15.463215258855584  39.169270833333336 15.463215258855584  C 43.028645833333336 15.463215258855584  46.13194444444444 16.751816530426883  48.479166666666664 19.32901907356948  Z " fill-rule="nonzero" fill="#d7d7d7" stroke="none" transform="matrix(1 0 0 1 437 647 )" />
  </g>
</svg>