<?xml version="1.0" encoding="utf-8"?>
<svg version="1.1" xmlns:xlink="http://www.w3.org/1999/xlink" width="119px" height="138px" xmlns="http://www.w3.org/2000/svg">
  <g transform="matrix(1 0 0 1 -1422 -318 )">
    <path d="M 25.179036458333332 55.83147321428572  C 35.81879340277778 58.03906250000001  47.259114583333336 59.142857142857146  59.5 59.142857142857146  C 71.74088541666667 59.142857142857146  83.18120659722223 58.03906250000001  93.82096354166667 55.83147321428572  C 104.46072048611113 53.623883928571416  112.8537326388889 50.36383928571428  119 46.05133928571428  L 119 59.142857142857146  C 119 62.685267857142854  116.34006076388887 65.97098214285714  111.02018229166667 69  C 105.70030381944446 72.02901785714285  98.46940104166667 74.42912946428571  89.32747395833333 76.20033482142857  C 80.185546875 77.97154017857143  70.24305555555556 78.85714285714285  59.5 78.85714285714285  C 48.75694444444445 78.85714285714285  38.814453125 77.97154017857143  29.672526041666668 76.20033482142857  C 20.530598958333332 74.42912946428571  13.299696180555557 72.02901785714285  7.979817708333334 69  C 2.6599392361111107 65.97098214285714  0 62.685267857142854  0 59.142857142857146  L 0 46.05133928571428  C 6.146267361111112 50.36383928571428  14.539279513888891 53.623883928571416  25.179036458333332 55.83147321428572  Z M 25.179036458333332 114.97433035714285  C 35.81879340277778 117.18191964285715  47.259114583333336 118.28571428571429  59.5 118.28571428571429  C 71.74088541666667 118.28571428571429  83.18120659722223 117.18191964285715  93.82096354166667 114.97433035714285  C 104.46072048611113 112.76674107142857  112.8537326388889 109.50669642857143  119 105.19419642857143  L 119 118.28571428571429  C 119 121.828125  116.34006076388887 125.11383928571429  111.02018229166667 128.14285714285714  C 105.70030381944446 131.171875  98.46940104166667 133.57198660714286  89.32747395833333 135.34319196428572  C 80.185546875 137.11439732142858  70.24305555555556 138  59.5 138  C 48.75694444444445 138  38.814453125 137.11439732142858  29.672526041666668 135.34319196428572  C 20.530598958333332 133.57198660714286  13.299696180555557 131.171875  7.979817708333334 128.14285714285714  C 2.6599392361111107 125.11383928571429  0 121.828125  0 118.28571428571429  L 0 105.19419642857143  C 6.146267361111112 109.50669642857143  14.539279513888891 112.76674107142857  25.179036458333332 114.97433035714285  Z M 25.179036458333332 85.40290178571429  C 35.81879340277778 87.61049107142857  47.259114583333336 88.71428571428571  59.5 88.71428571428571  C 71.74088541666667 88.71428571428571  83.18120659722223 87.61049107142857  93.82096354166667 85.40290178571429  C 104.46072048611113 83.19531249999999  112.8537326388889 79.93526785714285  119 75.62276785714285  L 119 88.71428571428571  C 119 92.25669642857143  116.34006076388887 95.5424107142857  111.02018229166667 98.57142857142857  C 105.70030381944446 101.60044642857143  98.46940104166667 104.00055803571429  89.32747395833333 105.77176339285715  C 80.185546875 107.54296875  70.24305555555556 108.42857142857143  59.5 108.42857142857143  C 48.75694444444445 108.42857142857143  38.814453125 107.54296875  29.672526041666668 105.77176339285715  C 20.530598958333332 104.00055803571429  13.299696180555557 101.60044642857143  7.979817708333334 98.57142857142857  C 2.6599392361111107 95.5424107142857  0 92.25669642857143  0 88.71428571428571  L 0 75.62276785714285  C 6.146267361111112 79.93526785714285  14.539279513888891 83.19531249999999  25.179036458333332 85.40290178571429  Z M 29.672526041666668 2.6568080357142794  C 38.814453125 0.8856026785714264  48.75694444444445 0  59.5 0  C 70.24305555555556 0  80.185546875 0.8856026785714264  89.32747395833333 2.6568080357142794  C 98.46940104166667 4.428013392857148  105.70030381944446 6.828124999999995  111.02018229166667 9.857142857142852  C 116.34006076388887 12.88616071428571  119 16.171875  119 19.714285714285722  L 119 29.571428571428573  C 119 33.11383928571428  116.34006076388887 36.399553571428555  111.02018229166667 39.42857142857142  C 105.70030381944446 42.457589285714285  98.46940104166667 44.857700892857146  89.32747395833333 46.62890625  C 80.185546875 48.400111607142854  70.24305555555556 49.28571428571428  59.5 49.28571428571428  C 48.75694444444445 49.28571428571428  38.814453125 48.400111607142854  29.672526041666668 46.62890625  C 20.530598958333332 44.857700892857146  13.299696180555557 42.457589285714285  7.979817708333334 39.42857142857142  C 2.6599392361111107 36.399553571428555  0 33.11383928571428  0 29.571428571428573  L 0 19.714285714285722  C 0 16.171875  2.6599392361111107 12.88616071428571  7.979817708333334 9.857142857142852  C 13.299696180555557 6.828124999999995  20.530598958333332 4.428013392857148  29.672526041666668 2.6568080357142794  Z " fill-rule="nonzero" fill="#d7d7d7" stroke="none" transform="matrix(1 0 0 1 1422 318 )" />
  </g>
</svg>