<?xml version="1.0" encoding="utf-8"?>
<svg version="1.1" xmlns:xlink="http://www.w3.org/1999/xlink" width="189px" height="140px" xmlns="http://www.w3.org/2000/svg">
  <g transform="matrix(1 0 0 1 -907 -318 )">
    <path d="M 180.73125000000002 78.00426136363636  C 186.24375000000003 84.9313446969697  189.00000000000003 92.86931818181817  189 101.81818181818183  C 189.00000000000003 112.35795454545453  185.30859375000003 121.3565340909091  177.92578125 128.81392045454547  C 170.54296875000003 136.2713068181818  161.63437500000003 140  151.20000000000002 140  L 44.1 140  C 31.959374999999998 140  21.574218750000004 135.64157196969697  12.94453125 126.9247159090909  C 4.31484375 118.20785984848483  0 107.71780303030305  0 95.45454545454547  C 0 86.70454545454547  2.3296875 78.7002840909091  6.9890625 71.44176136363636  C 11.6484375 64.18323863636364  17.784375 58.764204545454554  25.396874999999998 55.184659090909086  C 25.265625 53.32859848484848  25.2 51.903409090909086  25.2 50.909090909090914  C 25.2 36.856060606060595  30.121875 24.857954545454554  39.965625 14.914772727272732  C 49.809375 4.97159090909091  61.687500000000014 0  75.60000000000001 0  C 85.96875 0  95.36953125 2.9166666666666563  103.80234374999999 8.75  C 112.23515625000002 14.583333333333313  118.3875 22.206439393939387  122.25937499999999 31.61931818181818  C 126.853125 27.509469696969685  132.29999999999998 25.454545454545446  138.6 25.454545454545446  C 145.55625 25.454545454545446  151.49531249999998 27.94034090909091  156.4171875 32.91193181818182  C 161.3390625 37.883522727272734  163.8 43.882575757575744  163.8 50.909090909090914  C 163.8 55.88068181818182  162.4546875 60.454545454545446  159.7640625 64.63068181818183  C 168.22968750000004 66.61931818181817  175.21875000000003 71.07717803030302  180.73125000000002 78.00426136363636  Z " fill-rule="nonzero" fill="#d7d7d7" stroke="none" transform="matrix(1 0 0 1 907 318 )" />
  </g>
</svg>