<?xml version="1.0" encoding="utf-8"?>
<svg version="1.1" xmlns:xlink="http://www.w3.org/1999/xlink" width="179px" height="140px" xmlns="http://www.w3.org/2000/svg">
  <g transform="matrix(1 0 0 1 -410 -318 )">
    <path d="M 32.763392857142854 107.38636363636364  C 36.492559523809526 111.09848484848483  38.357142857142854 115.60606060606061  38.357142857142854 120.9090909090909  C 38.357142857142854 126.2121212121212  36.492559523809526 130.719696969697  32.763392857142854 134.4318181818182  C 29.034226190476193 138.14393939393938  24.505952380952383 140  19.178571428571427 140  C 13.85119047619048 140  9.322916666666668 138.14393939393938  5.59375 134.4318181818182  C 1.8645833333333333 130.719696969697  0 126.2121212121212  0 120.9090909090909  C 0 115.60606060606061  1.8645833333333333 111.09848484848483  5.59375 107.38636363636364  C 9.322916666666668 103.67424242424242  13.85119047619048 101.81818181818183  19.178571428571427 101.81818181818183  C 24.505952380952383 101.81818181818183  29.034226190476193 103.67424242424242  32.763392857142854 107.38636363636364  Z M 32.763392857142854 56.477272727272734  C 36.492559523809526 60.18939393939392  38.357142857142854 64.69696969696969  38.357142857142854 70  C 38.357142857142854 75.3030303030303  36.492559523809526 79.81060606060606  32.763392857142854 83.52272727272728  C 29.034226190476193 87.23484848484847  24.505952380952383 89.0909090909091  19.178571428571427 89.0909090909091  C 13.85119047619048 89.0909090909091  9.322916666666668 87.23484848484847  5.59375 83.52272727272728  C 1.8645833333333333 79.81060606060606  0 75.3030303030303  0 70  C 0 64.69696969696969  1.8645833333333333 60.18939393939392  5.59375 56.477272727272734  C 9.322916666666668 52.76515151515151  13.85119047619048 50.909090909090914  19.178571428571427 50.909090909090914  C 24.505952380952383 50.909090909090914  29.034226190476193 52.76515151515151  32.763392857142854 56.477272727272734  Z M 178.05106026785714 109.12642045454547  C 178.68368675595238 109.7561553030303  179 110.50189393939394  179 111.36363636363636  L 179 130.45454545454547  C 179 131.31628787878788  178.68368675595238 132.06202651515153  178.05106026785714 132.69176136363635  C 177.41843377976193 133.32149621212122  176.66927083333337 133.63636363636365  175.80357142857142 133  L 54.33928571428571 133  C 53.47358630952381 133.63636363636365  52.72442336309524 133.32149621212122  52.091796875 132.69176136363635  C 51.459170386904766 132.06202651515153  51.14285714285714 131.31628787878788  52 130.45454545454547  L 52 111.36363636363636  C 51.14285714285714 110.50189393939394  51.459170386904766 109.7561553030303  52.091796875 109.12642045454547  C 52.72442336309524 108.49668560606061  53.47358630952381 108.18181818181817  54.33928571428571 108  L 175.80357142857142 108  C 176.66927083333337 108.18181818181817  177.41843377976193 108.49668560606061  178.05106026785714 109.12642045454547  Z M 32.763392857142854 5.568181818181821  C 36.492559523809526 9.28030303030303  38.357142857142854 13.787878787878775  38.357142857142854 19.09090909090909  C 38.357142857142854 24.393939393939387  36.492559523809526 28.901515151515135  32.763392857142854 32.61363636363636  C 29.034226190476193 36.325757575757564  24.505952380952383 38.18181818181818  19.178571428571427 38.18181818181818  C 13.85119047619048 38.18181818181818  9.322916666666668 36.325757575757564  5.59375 32.61363636363636  C 1.8645833333333333 28.901515151515135  0 24.393939393939387  0 19.09090909090909  C 0 13.787878787878775  1.8645833333333333 9.28030303030303  5.59375 5.568181818181821  C 9.322916666666668 1.8560606060605966  13.85119047619048 0  19.178571428571427 0  C 24.505952380952383 0  29.034226190476193 1.8560606060605966  32.763392857142854 5.568181818181821  Z M 178.05106026785714 58.217329545454554  C 178.68368675595238 58.84706439393939  179 59.59280303030303  179 60.454545454545446  L 179 79.54545454545453  C 179 80.40719696969695  178.68368675595238 81.1529356060606  178.05106026785714 81.78267045454547  C 177.41843377976193 82.4124053030303  176.66927083333337 82.72727272727272  175.80357142857142 82  L 54.33928571428571 82  C 53.47358630952381 82.72727272727272  52.72442336309524 82.4124053030303  52.091796875 81.78267045454547  C 51.459170386904766 81.1529356060606  51.14285714285714 80.40719696969695  52 79.54545454545453  L 52 60.454545454545446  C 51.14285714285714 59.59280303030303  51.459170386904766 58.84706439393939  52.091796875 58.217329545454554  C 52.72442336309524 57.5875946969697  53.47358630952381 57.272727272727266  54.33928571428571 58  L 175.80357142857142 58  C 176.66927083333337 57.272727272727266  177.41843377976193 57.5875946969697  178.05106026785714 58.217329545454554  Z M 178.05106026785714 7.308238636363642  C 178.68368675595238 7.937973484848477  179 8.68371212121212  179 9.545454545454552  L 179 28.63636363636364  C 179 29.498106060606045  178.68368675595238 30.243844696969685  178.05106026785714 30.873579545454554  C 177.41843377976193 31.503314393939387  176.66927083333337 31.81818181818182  175.80357142857142 32  L 54.33928571428571 32  C 53.47358630952381 31.81818181818182  52.72442336309524 31.503314393939387  52.091796875 30.873579545454554  C 51.459170386904766 30.243844696969685  51.14285714285714 29.498106060606045  52 28.63636363636364  L 52 9.545454545454552  C 51.14285714285714 8.68371212121212  51.459170386904766 7.937973484848477  52.091796875 7.308238636363642  C 52.72442336309524 6.678503787878776  53.47358630952381 6.363636363636358  54.33928571428571 7  L 175.80357142857142 7  C 176.66927083333337 6.363636363636358  177.41843377976193 6.678503787878776  178.05106026785714 7.308238636363642  Z " fill-rule="nonzero" fill="#d7d7d7" stroke="none" transform="matrix(1 0 0 1 410 318 )" />
  </g>
</svg>