<?xml version="1.0" encoding="utf-8"?>
<svg version="1.1" xmlns:xlink="http://www.w3.org/1999/xlink" width="153px" height="140px" xmlns="http://www.w3.org/2000/svg">
  <g transform="matrix(1 0 0 1 -423 -665 )">
    <path d="M 65.4234375 84.34980124929018  C 69.4078125 80.3747870528109  71.4 75.5782699223926  71.4 69.96024985803521  C 71.4 64.34222979367783  69.4078125 59.54571266325951  65.4234375 55.570698466780236  C 61.4390625 51.59568427030096  56.63125 49.60817717206134  51 49.60817717206134  C 45.36875 49.60817717206134  40.5609375 51.59568427030096  36.5765625 55.570698466780236  C 32.5921875 59.54571266325951  30.6 64.34222979367783  30.6 69.96024985803521  C 30.6 75.5782699223926  32.5921875 80.3747870528109  36.5765625 84.34980124929018  C 40.5609375 88.32481544576945  45.36875 90.31232254400909  51 90.31232254400909  C 56.63125 90.31232254400909  61.4390625 88.32481544576945  65.4234375 84.34980124929018  Z M 129.61171875 117.85917092561046  C 131.60390625 115.87166382737081  132.6 113.47340526216163  132.6 110.66439522998296  C 132.6 107.90838538709066  131.59062500000002 105.5233768692031  129.571875 103.50936967632028  C 127.55312500000001 101.49536248343743  125.16250000000001 100.48835888699602  122.4 100.48835888699602  C 119.63750000000002 100.48835888699602  117.24687500000002 101.49536248343743  115.228125 103.50936967632028  C 113.20937500000001 105.5233768692031  112.19999999999999 107.90838538709066  112.19999999999999 110.66439522998296  C 112.19999999999999 113.47340526216163  113.19609375 115.87166382737081  115.18828124999999 117.85917092561046  C 117.18046875 119.84667802385007  119.58437500000001 120.8404315729699  122.4 120.8404315729699  C 125.215625 120.8404315729699  127.61953125 119.84667802385007  129.61171875 117.85917092561046  Z M 129.61171875 36.450880181714936  C 131.60390625 34.463373083475304  132.6 32.065114518266135  132.6 29.25610448608746  C 132.6 26.500094643195148  131.59062500000002 24.115086125307585  129.571875 22.10107893242476  C 127.55312500000001 20.087071739541923  125.16250000000001 19.08006814310051  122.4 19.08006814310051  C 119.63750000000002 19.08006814310051  117.24687500000002 20.087071739541923  115.228125 22.10107893242476  C 113.20937500000001 24.115086125307585  112.19999999999999 26.500094643195148  112.19999999999999 29.25610448608746  C 112.19999999999999 32.065114518266135  113.19609375 34.463373083475304  115.18828124999999 36.450880181714936  C 117.18046875 38.438387279954576  119.58437500000001 39.43214082907439  122.4 39.43214082907439  C 125.215625 39.43214082907439  127.61953125 38.438387279954576  129.61171875 36.450880181714936  Z M 101.44218749999999 61.175468483816005  C 101.8140625 61.625970092750336  102 62.14272193829263  102 62.72572402044293  L 102 77.43327654741624  C 102 77.96327844028013  101.8140625 78.48003028582244  101.44218749999999 78.98353208404315  C 101.07031250000001 79.48703388226386  100.6453125 79.7652848760174  100.1671875 79.8182850653038  L 87.815625 81.72629187961385  C 87.23125000000002 83.58129850463752  86.38125 85.59530569752033  85.265625 87.76831345826236  C 87.071875 90.31232254400909  89.4625 93.35983342797651  92.4375 96.91084611016467  C 92.809375 97.49384819231496  92.9953125 98.02385008517888  92.9953125 98.50085178875639  C 92.9953125 99.13685406019307  92.809375 99.64035585841378  92.4375 100.01135718341851  C 91.215625 101.60136286201022  89.02421875000002 103.97312133257617  85.86328125 107.1266325951164  C 82.70234375000001 110.28014385765664  80.6171875 111.85689948892676  79.6078125 111.85689948892676  C 79.0234375 111.85689948892676  78.465625 111.67139882642438  77.934375 111.30039750141964  L 68.7703125 104.14537194775696  C 66.8046875 105.15237554419838  64.759375 105.97387847813742  62.634375 106.60988074957412  C 62.05000000000001 112.33390119250427  61.4390625 116.44141586219952  60.8015625 118.93242475865985  C 60.4296875 120.20442930153322  59.63281250000001 120.8404315729699  58.4109375 120  L 43.589062500000004 120  C 43.0046875 120.8404315729699  42.473437499999996 120.64168086314594  41.9953125 120.24417944349803  C 41.5171875 119.84667802385007  41.2515625 119.38292636759418  41.198437500000004 118.85292447473027  L 39.365624999999994 106.6893810335037  C 37.559375 106.15937914063979  35.5671875 105.33787620670074  33.3890625 104.22487223168655  L 23.9859375 111.30039750141964  C 23.6140625 111.67139882642438  23.082812500000003 111.85689948892676  22.392187500000002 111.85689948892676  C 21.807812500000004 111.85689948892676  21.25 111.64489873178118  20.71875 111.22089721749008  C 13.06875 104.17187204240014  9.24375 99.93185689948892  9.24375 98.50085178875639  C 9.24375 98.02385008517888  9.4296875 97.52034828695815  9.8015625 96.99034639409426  C 10.332812500000001 96.24834374408479  11.421875 94.84383872799545  13.06875 92.77683134582622  C 14.715625000000001 90.709823963657  15.964062500000002 89.0933181904221  16.8140625 87.92731402612152  C 15.592187500000001 85.59530569752033  14.662500000000001 83.42229793677834  14.024999999999999 81.40829074389552  L 1.9125 79.50028392958546  C 1.38125 79.44728374029906  0.9296875000000001 79.19553284118872  0.5578125 78.7450312322544  C 0.18593749999999998 78.29452962332007  0 77.77777777777779  0 77.19477569562748  L 0 62.487223168654175  C 0 61.95722127579026  0.18593749999999998 61.440469430247965  0.5578125 60.93696763202725  C 0.9296875000000001 60.43346583380655  1.3546875 60.15521484005299  1.8328125000000002 60.10221465076661  L 14.184375000000001 58.194207836456556  C 14.76875 56.33920121143289  15.61875 54.325194018550064  16.734375 52.152186257808054  C 14.928125 49.60817717206134  12.5375 46.56066628809387  9.5625 43.00965360590574  C 9.190625 42.426651523755424  9.0046875 41.89664963089154  9.0046875 41.419647927314024  C 9.0046875 40.78364565587734  9.190625 40.25364376301343  9.5625 39.829642248722315  C 10.731250000000003 38.23963657013061  12.909375 35.881128146886226  16.096875 32.7541169789892  C 19.284375 29.627105811092168  21.382812500000004 28.063600227143674  22.392187500000002 28.063600227143674  C 22.976562500000004 28.063600227143674  23.534375 28.24910088964603  24.065625 28.620102214650775  L 33.229687500000004 35.77512776831345  C 35.0359375 34.821124361158425  37.081250000000004 33.97312133257619  39.365624999999994 33.231118682566716  C 39.95 27.507098239636576  40.560937499999994 23.4260836645845  41.198437500000004 20.988074957410564  C 41.57031250000001 19.716070414537196  42.36718750000001 19.08006814310051  43.589062500000004 19  L 58.4109375 19  C 58.995312500000004 19.08006814310051  59.5265625 19.27881885292448  60.0046875 19.67632027257241  C 60.4828125 20.07382169222032  60.7484375 20.537573348476236  60.8015625 21.067575241340148  L 62.634375 33.231118682566716  C 64.44062500000001 33.76112057543062  66.43281250000001 34.582623509369675  68.61093749999999 35.69562748438387  L 78.0140625 28.620102214650775  C 78.43906250000002 28.24910088964603  78.9703125 28.063600227143674  79.6078125 28.063600227143674  C 80.1921875 28.063600227143674  80.75 28.275600984289216  81.28125 28.699602498580358  C 88.93125 35.748627673670256  92.75625 39.98864281658149  92.75625 41.419647927314024  C 92.75625 41.84364944160514  92.5703125 42.347151239825834  92.19843750000001 42.93015332197615  C 91.5609375 43.778156350558376  90.4453125 45.20916146129092  88.8515625 47.22316865417377  C 87.2578125 49.23717584705659  86.0625 50.82718152564831  85.265625 51.99318568994889  C 86.48750000000001 54.537194775695625  87.390625 56.71020253643762  87.975 58.512208972174896  L 100.0875 60.34071550255537  C 100.61875 60.446715881128135  101.07031250000001 60.724966874881694  101.44218749999999 61.175468483816005  Z M 141.1265625 102.63486655309484  C 149.0421875 103.42986939239069  153.00000000000003 104.25137232632973  153 105.09937535491198  L 153 116.22941510505395  C 153.00000000000003 117.0774181336362  149.0421875 117.89892106757524  141.1265625 118.69392390687109  C 140.4890625 120.12492901760363  139.6921875 121.50293393904977  138.7359375 122.82793867120954  C 141.4453125 128.81696006057163  142.8 132.47397312133256  142.8 133.79897785349232  C 142.8 134.0109786106379  142.69375 134.19647927314026  142.48125000000002 134.35547984099944  C 136 138.11849328033313  132.70625 140  132.6 140  C 132.175 140  130.95312500000003 138.75449555176982  128.934375 136.2634866553095  C 126.915625 133.77247775884913  125.534375 131.97047132311187  124.790625 130.85746734809769  C 123.728125 130.96346772667044  122.93125 131.01646791595684  122.4 131.01646791595684  C 121.86875 131.01646791595684  121.07187500000002 130.96346772667044  120.009375 130.85746734809769  C 119.26562500000001 131.97047132311187  117.88437500000002 133.77247775884913  115.86562500000001 136.2634866553095  C 113.84687500000001 138.75449555176982  112.62500000000001 140  112.19999999999999 140  C 112.09375000000001 140  108.8 138.11849328033313  102.31875 134.35547984099944  C 102.10625000000002 134.19647927314026  102 134.0109786106379  102 133.79897785349232  C 102 132.47397312133256  103.3546875 128.81696006057163  106.0640625 122.82793867120954  C 105.10781250000001 121.50293393904977  104.3109375 120.12492901760363  103.6734375 118.69392390687109  C 95.7578125 117.89892106757524  91.8 117.0774181336362  91 116.22941510505395  L 91 105.09937535491198  C 91.8 104.25137232632973  95.7578125 103.42986939239069  103.6734375 102.63486655309484  C 104.3640625 101.0978610637895  105.16093750000002 99.71985614234336  106.0640625 98.50085178875639  C 103.3546875 92.51183039939427  102 88.85481733863334  102 87.52981260647358  C 102 87.31781184932802  102.10625000000002 87.13231118682567  102.31875 86.97331061896651  C 102.53125000000001 86.8673102403937  103.46093750000001 86.33730834752981  105.10781250000001 85.38330494037479  C 106.7546875 84.42930153321977  108.32187500000002 83.52829831535111  109.80937499999999 82.68029528676888  C 111.296875 81.83229225818663  112.09375000000001 81.40829074389552  112.19999999999999 81.40829074389552  C 112.62500000000001 81.40829074389552  113.84687500000001 82.64054514480408  115.86562500000001 85.10505394662124  C 117.88437500000002 87.56956274843839  119.26562500000001 89.35831913685406  120.009375 90.47132311186826  C 121.07187500000002 90.36532273329549  121.86875 90.31232254400909  122.4 90.31232254400909  C 122.93125 90.31232254400909  123.728125 90.36532273329549  124.790625 90.47132311186826  C 127.50000000000003 86.70830967253453  129.94375000000002 83.74029907249668  132.121875 81.56729131175469  L 132.6 81.40829074389552  C 132.81250000000003 81.40829074389552  136.10625000000002 83.26329736891917  142.48125000000002 86.97331061896651  C 142.69375 87.13231118682567  142.8 87.31781184932802  142.8 87.52981260647358  C 142.8 88.85481733863334  141.4453125 92.51183039939427  138.7359375 98.50085178875639  C 139.63906250000002 99.71985614234336  140.4359375 101.0978610637895  141.1265625 102.63486655309484  Z M 141.1265625 21.226575809199318  C 149.0421875 22.021578648495176  153.00000000000003 22.843081582434216  153 23.69108461101647  L 153 34.821124361158425  C 153.00000000000003 35.669127389740666  149.0421875 36.490630323679724  141.1265625 37.28563316297558  C 140.4890625 38.71663827370812  139.6921875 40.094643195154255  138.7359375 41.419647927314024  C 141.4453125 47.408669316676125  142.8 51.065682377437064  142.8 52.39068710959681  C 142.8 52.60268786674237  142.69375 52.78818852924474  142.48125000000002 52.947189097103916  C 136 56.71020253643762  132.70625 58.59170925610449  132.6 58.59170925610449  C 132.175 58.59170925610449  130.95312500000003 57.3462048078743  128.934375 54.855195911413965  C 126.915625 52.364187014953615  125.534375 50.562180579216346  124.790625 49.449176604202165  C 123.728125 49.55517698277494  122.93125 49.60817717206134  122.4 49.60817717206134  C 121.86875 49.60817717206134  121.07187500000002 49.55517698277494  120.009375 49.449176604202165  C 119.26562500000001 50.562180579216346  117.88437500000002 52.364187014953615  115.86562500000001 54.855195911413965  C 113.84687500000001 57.3462048078743  112.62500000000001 58.59170925610449  112.19999999999999 58.59170925610449  C 112.09375000000001 58.59170925610449  108.8 56.71020253643762  102.31875 52.947189097103916  C 102.10625000000002 52.78818852924474  102 52.60268786674237  102 52.39068710959681  C 102 51.065682377437064  103.3546875 47.408669316676125  106.0640625 41.419647927314024  C 105.10781250000001 40.094643195154255  104.3109375 38.71663827370812  103.6734375 37.28563316297558  C 95.7578125 36.490630323679724  91.8 35.669127389740666  91 34.821124361158425  L 91 23.69108461101647  C 91.8 22.843081582434216  95.7578125 22.021578648495176  103.6734375 21.226575809199318  C 104.3640625 19.689570319893996  105.16093750000002 18.31156539844784  106.0640625 17.092561044860872  C 103.3546875 11.103539655498757  102 7.446526594737824  102 6.121521862578085  C 102 5.909521105432514  102.10625000000002 5.724020442930158  102.31875 5.565019875070987  C 102.53125000000001 5.459019496498185  103.46093750000001 4.9290176036343025  105.10781250000001 3.9750141964792762  C 106.7546875 3.02101078932425  108.32187500000002 2.1200075714555933  109.80937499999999 1.2720045428733684  C 111.296875 0.42400151429111244  112.09375000000001 0  112.19999999999999 0  C 112.62500000000001 0  113.84687500000001 1.2322544009085679  115.86562500000001 3.696763202725719  C 117.88437500000002 6.16127200454287  119.26562500000001 7.9500283929585525  120.009375 9.063032367972749  C 121.07187500000002 8.957031989399947  121.86875 8.904031800113579  122.4 8.904031800113579  C 122.93125 8.904031800113579  123.728125 8.957031989399947  124.790625 9.063032367972749  C 127.50000000000003 5.300018928639014  129.94375000000002 2.332008328601165  132.121875 0.15900056785917105  L 132.6 0  C 132.81250000000003 0  136.10625000000002 1.8550066250236519  142.48125000000002 5.565019875070987  C 142.69375 5.724020442930158  142.8 5.909521105432514  142.8 6.121521862578085  C 142.8 7.446526594737824  141.4453125 11.103539655498757  138.7359375 17.092561044860872  C 139.63906250000002 18.31156539844784  140.4359375 19.689570319893996  141.1265625 21.226575809199318  Z " fill-rule="nonzero" fill="#d7d7d7" stroke="none" transform="matrix(1 0 0 1 423 665 )" />
  </g>
</svg>