<?xml version="1.0" encoding="utf-8"?>
<svg version="1.1" xmlns:xlink="http://www.w3.org/1999/xlink" width="140px" height="140px" xmlns="http://www.w3.org/2000/svg">
  <g transform="matrix(1 0 0 1 -930 -665 )">
    <path d="M 24 128.17161716171617  L 33.54455445544554 128.17161716171617  L 41.95379537953796 119.76237623762376  L 20.237623762376238 98.04620462046205  L 11.82838283828383 106.45544554455445  L 11.82838283828383 116  L 24 116  L 24 128.17161716171617  Z M 81.22772277227722 43.98679867986799  C 81.65896589658966 43.55555555555556  81.87458745874588 43.03190319031903  81.87458745874588 42.41584158415842  C 81.87458745874588 41.060506050605056  81.1969196919692 40.38283828382838  79.84158415841584 40.38283828382838  C 79.22552255225523 40.38283828382838  78.70187018701871 40.59845984598459  78.27062706270627 41.02970297029704  L 28.184818481848183 91.11551155115512  C 27.753575357535755 91.54675467546754  27.537953795379536 92.07040704070405  27.537953795379536 92.68646864686468  C 27.537953795379536 94.04180418041801  28.21562156215622 94.71947194719473  29.57095709570957 94.71947194719473  C 30.18701870187019 94.71947194719473  30.710671067106713 94.5038503850385  31.14191419141914 94.07260726072607  L 81.22772277227722 43.98679867986799  Z M 0 101.55775577557756  L 76.88448844884489 24.67326732673268  L 115.32673267326732 63.115511551155116  L 38.442244224422446 140  L 0 140  L 0 101.55775577557756  Z M 136.5808580858086 25.13531353135313  C 138.86028602860287 27.537953795379543  140 30.34103410341034  140 33.54455445544554  C 140 36.80968096809681  138.86028602860287 39.58195819581957  136.5808580858086 41.86138613861387  L 121.24092409240923 57.2013201320132  L 82.7986798679868 18.759075907590766  L 98.13861386138613 3.5115511551155043  C 100.35643564356435 1.1705170517051577  103.12871287128712 0  106.45544554455445 0  C 109.72057205720574 0  112.52365236523654 1.1705170517051577  114.86468646864687 3.5115511551155043  L 136.5808580858086 25.13531353135313  Z " fill-rule="nonzero" fill="#d7d7d7" stroke="none" transform="matrix(1 0 0 1 930 665 )" />
  </g>
</svg>